<svg xmlns="http://www.w3.org/2000/svg" viewBox="0 0 240 240"><defs><linearGradient id="bg" x2="1" y2="1"><stop stop-color="#eefbfc"/><stop offset="1" stop-color="#eef2ff"/></linearGradient><linearGradient id="coat" x2="1" y2="1"><stop stop-color="#263b63"/><stop offset="1" stop-color="#101c35"/></linearGradient><radialGradient id="orb"><stop stop-color="#fff"/><stop offset=".3" stop-color="#96f0e8"/><stop offset="1" stop-color="#3b82d0"/></radialGradient><filter id="glow"><feGaussianBlur stdDeviation="7"/></filter></defs><rect width="240" height="240" rx="54" fill="url(#bg)"/><circle cx="190" cy="54" r="29" fill="#14a7a0" opacity=".1"/><path d="M34 230c4-60 39-86 86-86s82 26 86 86" fill="url(#coat)"/><path d="M95 139h50v40l-25 18-25-18z" fill="#e7b899"/><ellipse cx="120" cy="94" rx="55" ry="63" fill="#f1c8aa"/><path d="M68 91c-3-45 21-69 55-69 29 0 49 16 55 44-19-10-41-16-69-8-11 3-22 13-41 33z" fill="#39435d"/><path d="M74 69c9-34 34-47 56-46 18 0 33 7 43 19-20-8-35-9-53-4-19 5-31 16-46 31z" fill="#747d91"/><path d="M83 92c10-9 24-9 34 0M124 92c10-9 24-9 34 0" fill="none" stroke="#252d45" stroke-width="5" stroke-linecap="round"/><circle cx="101" cy="96" r="17" fill="none" stroke="#2f3852" stroke-width="4"/><circle cx="140" cy="96" r="17" fill="none" stroke="#2f3852" stroke-width="4"/><path d="M118 96h5" stroke="#2f3852" stroke-width="4"/><circle cx="102" cy="96" r="3" fill="#252d45"/><circle cx="140" cy="96" r="3" fill="#252d45"/><path d="M118 101c-1 10-4 16-7 20 4 3 9 4 15 1" fill="none" stroke="#c58f75" stroke-width="3" stroke-linecap="round"/><path d="M100 132c12 9 29 9 41-1" fill="none" stroke="#7e4f48" stroke-width="4" stroke-linecap="round"/><path d="M108 145c4 7 19 7 24 0" stroke="#c9987f" stroke-width="3" stroke-linecap="round"/><path d="M91 168l29 29 29-29 8 62H83z" fill="#f7f1e8"/><path d="M120 197l-22-29-12 11 20 51h28l20-51-12-11z" fill="#119c96"/><circle cx="186" cy="186" r="24" fill="#3b82d0" opacity=".18" filter="url(#glow)"/><circle cx="186" cy="186" r="16" fill="url(#orb)"/><path d="M180 186h12M186 180v12" stroke="#fff" stroke-width="2" stroke-linecap="round"/></svg>
